<?xml version="1.0" encoding="utf-8"?>
<!-- Generator: Adobe Illustrator 27.9.6, SVG Export Plug-In . SVG Version: 9.03 Build 54986)  -->
<svg version="1.1" id="Layer_1" xmlns="http://www.w3.org/2000/svg" xmlns:xlink="http://www.w3.org/1999/xlink" x="0px" y="0px"
	 viewBox="0 0 504.8 194.6" style="enable-background:new 0 0 504.8 194.6;" xml:space="preserve">
<style type="text/css">
	.st0{fill:#F5D86E;}
</style>
<path class="st0" d="M267,144.5c-5.9,1.7-12.1,3-18.2,3c-15.2,0-29.5-6.9-29.5-26.9V0.5h32.1v110.1c0,6.3,4.1,8.5,9.3,8.5
	s5.4-0.4,8-1.5L267,144.5L267,144.5L267,144.5z"/>
<path class="st0" d="M323.7,144.5c-5.9,1.7-12.1,3-18.2,3c-15.2,0-29.5-6.9-29.5-26.9V0.5h32.1v110.1c0,6.3,4.1,8.5,9.3,8.5
	s5.4-0.4,8-1.5L323.7,144.5L323.7,144.5L323.7,144.5z"/>
<path class="st0" d="M350,0.7c11.3,0,19.7,5.9,19.7,18s-8.5,17.8-19.7,17.8s-19.1-6.1-19.1-17.8S339.6,0.7,350,0.7z M366,45.2v100.2
	h-32.1V45.2H366z"/>
<path class="st0" d="M441.9,110.7l27.3,9.8c-5.6,20.2-24.1,27.5-43.8,27.5c-29.3,0-49.6-18.9-49.6-51s18.9-54.2,49.9-54.2
	s43.1,18.9,43.1,44.9s-0.4,8.5-1.3,13h-60.7c0.4,13.9,6.9,22.5,19.1,22.5S438.7,120.8,441.9,110.7L441.9,110.7z M438,83.8
	c0.2-1.1,0.2-2,0.2-3c0-8.2-4.3-14.3-13.7-14.3s-16,7.6-16.9,17.3H438z"/>
<path class="st0" d="M190.8,0.7h-17.6c-15.7,22.3-32,45.3-45.9,64.6c-14.8-9.8-28.9-17-44.5-17c-22.2,0-41.3,11.7-49.9,30.5
	c-8.1,17.6-5.4,37.4,7,51.7c9.5,11,23.1,17.3,37.4,17.4h0.2c14.1,0,27.3-6.1,37.2-17.3c2.8-3.2,10.1-12.9,19.3-25.6
	c2.6,1.8,5.2,3.7,7.9,5.5c24.8,16.9,31.3,30.1,31.3,34.8h30.1V0.7h-12.6l0,0H190.8z M93.3,111.6c-4.4,5-9.8,7.6-15.7,7.6
	c-5.9,0-11.8-2.8-15.8-7.5c-5.9-6.8-5.2-15.3-2.6-21c1.9-4.1,8-13.8,23.8-13.8s17.1,4.6,27.6,11.5C101.8,100.5,95.5,109,93.3,111.6
	L93.3,111.6L93.3,111.6z M158.2,86.8c-2.5-1.7-4.9-3.4-7.3-5.1c7.5-10.4,15.3-21.3,22.5-31.6v48.2C168.8,94.4,163.8,90.6,158.2,86.8
	L158.2,86.8z"/>
<path class="st0" d="M71.7,172.2h4.9c0.8,0,1.6,0.1,2.2,0.4c0.6,0.3,1.1,0.7,1.4,1.2s0.5,1.1,0.5,1.7s-0.1,1.2-0.4,1.7
	s-0.7,0.9-1.3,1.2c1.5,0.6,2.3,1.6,2.3,3.1s-0.2,1.3-0.5,1.9c-0.3,0.6-0.8,1-1.4,1.4c-0.6,0.3-1.4,0.5-2.3,0.5h-5.2v-13.1l0,0
	L71.7,172.2z M78.6,177.3c0.4-0.4,0.6-0.9,0.6-1.6s-0.2-1.2-0.7-1.7c-0.5-0.4-1.1-0.6-2-0.6h-3.3v4.5h3.6
	C77.6,177.9,78.2,177.7,78.6,177.3L78.6,177.3z M79,183.3c0.5-0.5,0.7-1.1,0.7-1.8s-0.2-1.3-0.7-1.8s-1.2-0.7-2.2-0.7h-3.7v4.9h3.7
	c1,0,1.7-0.2,2.2-0.7l0,0V183.3z"/>
<path class="st0" d="M83.4,184.8c-0.6-0.5-0.9-1.1-0.9-2s0.5-1.9,1.6-2.5s2.7-0.9,5-1.1V179c0-0.8-0.2-1.4-0.6-1.9
	c-0.4-0.4-1-0.7-1.8-0.7s-1.1,0.1-1.6,0.4c-0.4,0.3-0.7,0.7-0.8,1.2l-1.3-0.4c0.3-0.7,0.7-1.3,1.4-1.7c0.7-0.4,1.4-0.6,2.3-0.6
	c1.3,0,2.2,0.3,2.8,1c0.6,0.6,0.9,1.6,0.9,2.9v2.3c0,1.3,0.1,2.6,0.4,3.7h-1.2l-0.4-1.5c-0.3,0.5-0.7,0.9-1.2,1.2
	c-0.6,0.3-1.3,0.5-2.1,0.5s-1.8-0.2-2.4-0.7l0,0L83.4,184.8z M88.2,183.7c0.6-0.5,0.9-1.3,0.9-2.3v-1.1c-1.8,0.1-3.1,0.4-3.9,0.8
	c-0.8,0.4-1.3,0.9-1.3,1.7s0.2,0.9,0.6,1.2s0.9,0.5,1.6,0.5S87.7,184.3,88.2,183.7L88.2,183.7L88.2,183.7z"/>
<path class="st0" d="M93.3,175.6h1l0.4,1.8c0.3-0.6,0.8-1,1.4-1.4s1.3-0.5,2.1-0.5v1.3c-1.3,0-2.2,0.4-2.7,1.1
	c-0.5,0.7-0.8,1.7-0.8,3.1v4.3h-1.3L93.3,175.6L93.3,175.6L93.3,175.6z"/>
<path class="st0" d="M100.1,175.6h1l0.3,1.5c0.3-0.5,0.7-0.9,1.2-1.2s1.2-0.5,1.9-0.5c1.1,0,1.9,0.3,2.5,1c0.5,0.6,0.8,1.5,0.8,2.6
	v6.3h-1.3v-5.9c0-0.9-0.2-1.6-0.5-2.1s-0.9-0.8-1.8-0.8s-1.5,0.3-2.1,0.9c-0.5,0.6-0.8,1.4-0.8,2.5v5.3H100v-9.7l0,0L100.1,175.6z"
	/>
<path class="st0" d="M112.2,184.8c-0.7-0.4-1.2-1-1.6-1.8s-0.5-1.6-0.5-2.6s0.2-1.9,0.6-2.7s0.9-1.4,1.6-1.8s1.5-0.6,2.3-0.6
	s1.8,0.3,2.4,0.8c0.7,0.5,1.2,1.2,1.5,2s0.5,1.7,0.4,2.6h-7.5c0,0.9,0.2,1.6,0.6,2.2s0.8,0.9,1.3,1.2c0.5,0.2,1,0.3,1.4,0.3
	s1-0.1,1.4-0.3s0.7-0.5,1-0.8l1.3,0.4c-0.4,0.6-0.9,1-1.5,1.4c-0.6,0.3-1.4,0.5-2.2,0.5S112.9,185.4,112.2,184.8L112.2,184.8
	L112.2,184.8z M117.2,178.2c-0.2-0.5-0.6-0.9-1-1.2s-1-0.5-1.6-0.5s-1.5,0.2-2.1,0.7s-0.9,1.3-1.1,2.3h6.1
	C117.5,179,117.4,178.5,117.2,178.2L117.2,178.2L117.2,178.2z"/>
<path class="st0" d="M122.4,185.1c-0.3-0.1-0.5-0.3-0.6-0.7s-0.2-0.8-0.2-1.5v-6.3h-1.7v-1.1h1.7v-2.4h1.3v2.4h2v1.1h-2v6.1
	c0,0.4,0,0.7,0,0.8c0,0.2,0.1,0.3,0.3,0.4c0.1,0,0.4,0,0.7,0h1v1.2h-1.2c-0.6,0-1,0-1.4-0.2l0,0L122.4,185.1z"/>
<path class="st0" d="M127.8,184.9c-0.7-0.4-1.3-1-1.6-1.8l1.3-0.5c0.2,0.5,0.5,1,1,1.3s1,0.5,1.7,0.5s1.3-0.2,1.7-0.5
	c0.5-0.3,0.7-0.7,0.7-1.2s-0.2-0.8-0.5-1.1c-0.4-0.3-0.9-0.5-1.8-0.7l-1-0.2c-0.9-0.2-1.6-0.5-2.1-0.9s-0.7-1-0.7-1.7s0.2-1,0.5-1.4
	s0.7-0.7,1.3-1c0.5-0.2,1.1-0.3,1.8-0.3s1.5,0.2,2.2,0.5c0.6,0.3,1.1,0.8,1.4,1.5l-1.3,0.5c-0.2-0.4-0.5-0.7-0.9-1
	c-0.4-0.2-0.9-0.3-1.4-0.3s-1.1,0.1-1.5,0.4c-0.4,0.3-0.6,0.6-0.6,1.1s0.1,0.7,0.4,0.9s0.8,0.4,1.4,0.6l1,0.2c1.1,0.2,1.9,0.6,2.5,1
	c0.5,0.4,0.8,1,0.8,1.9s-0.2,1.1-0.5,1.5s-0.8,0.8-1.3,1c-0.6,0.2-1.2,0.4-1.9,0.4s-1.6-0.2-2.3-0.6l0,0L127.8,184.9z"/>
<path class="st0" d="M141.4,184.8c-0.6-0.5-0.9-1.1-0.9-2s0.5-1.9,1.6-2.5s2.7-0.9,5-1.1V179c0-0.8-0.2-1.4-0.6-1.9
	c-0.4-0.4-1-0.7-1.8-0.7s-1.1,0.1-1.6,0.4c-0.4,0.3-0.7,0.7-0.8,1.2l-1.3-0.4c0.3-0.7,0.7-1.3,1.4-1.7s1.4-0.6,2.3-0.6
	c1.3,0,2.2,0.3,2.8,1c0.6,0.6,0.9,1.6,0.9,2.9v2.3c0,1.3,0.1,2.6,0.4,3.7h-1.2l-0.4-1.5c-0.3,0.5-0.7,0.9-1.2,1.2
	c-0.6,0.3-1.3,0.5-2.1,0.5s-1.8-0.2-2.4-0.7l0,0L141.4,184.8z M146.2,183.7c0.6-0.5,0.9-1.3,0.9-2.3v-1.1c-1.8,0.1-3.1,0.4-3.9,0.8
	c-0.8,0.4-1.3,0.9-1.3,1.7s0.2,0.9,0.6,1.2c0.4,0.3,0.9,0.5,1.6,0.5s1.6-0.2,2.2-0.7l0,0L146.2,183.7z"/>
<path class="st0" d="M152.1,185.1c-0.3-0.1-0.5-0.3-0.6-0.6s-0.2-0.7-0.2-1.3v-11.8h1.3v11.7c0,0.4,0,0.7,0.2,0.8
	c0.1,0.1,0.4,0.2,0.8,0.2h0.7v1.2h-0.9C152.8,185.3,152.4,185.3,152.1,185.1L152.1,185.1L152.1,185.1z"/>
<path class="st0" d="M156.9,185.1c-0.3-0.1-0.5-0.3-0.6-0.6s-0.2-0.7-0.2-1.3v-11.8h1.3v11.7c0,0.4,0,0.7,0.2,0.8
	c0.1,0.1,0.4,0.2,0.8,0.2h0.7v1.2h-0.9C157.6,185.3,157.2,185.3,156.9,185.1L156.9,185.1L156.9,185.1z"/>
<path class="st0" d="M161.6,176.6h-1.3v-1.1h2.6v9.7h-1.3V176.6L161.6,176.6L161.6,176.6z M161.3,173.3c-0.2-0.2-0.3-0.4-0.3-0.7
	s0.1-0.5,0.3-0.7s0.4-0.3,0.7-0.3s0.6,0.1,0.8,0.3s0.3,0.5,0.3,0.8s-0.1,0.5-0.3,0.7s-0.5,0.3-0.7,0.3s-0.5-0.1-0.7-0.3l0,0
	L161.3,173.3z"/>
<path class="st0" d="M167.3,184.8c-0.7-0.4-1.2-1-1.6-1.8c-0.4-0.8-0.5-1.6-0.5-2.6s0.2-1.9,0.6-2.7s0.9-1.4,1.6-1.8
	s1.5-0.6,2.3-0.6s1.8,0.3,2.4,0.8c0.7,0.5,1.2,1.2,1.5,2s0.5,1.7,0.4,2.6h-7.5c0,0.9,0.2,1.6,0.6,2.2s0.8,0.9,1.3,1.2
	c0.5,0.2,1,0.3,1.4,0.3s1-0.1,1.4-0.3s0.7-0.5,1-0.8l1.3,0.4c-0.4,0.6-0.9,1-1.5,1.4c-0.6,0.3-1.4,0.5-2.2,0.5
	S168,185.4,167.3,184.8L167.3,184.8L167.3,184.8z M172.3,178.2c-0.2-0.5-0.6-0.9-1-1.2s-1-0.5-1.6-0.5s-1.5,0.2-2.1,0.7
	s-0.9,1.3-1.1,2.3h6.1c0-0.5-0.1-1-0.4-1.4l0,0L172.3,178.2z"/>
<path class="st0" d="M176.2,175.6h1l0.4,1.8c0.3-0.6,0.8-1,1.4-1.4c0.6-0.4,1.3-0.5,2.1-0.5v1.3c-1.3,0-2.2,0.4-2.7,1.1
	c-0.5,0.7-0.8,1.7-0.8,3.1v4.3h-1.3L176.2,175.6L176.2,175.6L176.2,175.6z"/>
<path class="st0" d="M182.7,184.8c-0.6-0.5-0.9-1.1-0.9-2s0.5-1.9,1.6-2.5s2.7-0.9,5-1.1V179c0-0.8-0.2-1.4-0.6-1.9
	c-0.4-0.4-1-0.7-1.8-0.7s-1.1,0.1-1.6,0.4c-0.4,0.3-0.7,0.7-0.8,1.2l-1.3-0.4c0.3-0.7,0.7-1.3,1.4-1.7s1.4-0.6,2.3-0.6
	c1.3,0,2.2,0.3,2.8,1c0.6,0.6,0.9,1.6,0.9,2.9v2.3c0,1.3,0.1,2.6,0.4,3.7h-1.2l-0.4-1.5c-0.3,0.5-0.7,0.9-1.2,1.2
	c-0.6,0.3-1.3,0.5-2.1,0.5s-1.8-0.2-2.4-0.7l0,0L182.7,184.8z M187.5,183.7c0.6-0.5,0.9-1.3,0.9-2.3v-1.1c-1.8,0.1-3.1,0.4-3.9,0.8
	c-0.8,0.4-1.3,0.9-1.3,1.7s0.2,0.9,0.6,1.2c0.4,0.3,0.9,0.5,1.6,0.5s1.6-0.2,2.2-0.7l0,0L187.5,183.7z"/>
<path class="st0" d="M193.8,184.9c-0.6-0.4-1.1-1-1.5-1.7c-0.4-0.8-0.6-1.7-0.6-2.7s0.2-1.9,0.5-2.7c0.4-0.8,0.9-1.4,1.5-1.8
	c0.6-0.4,1.3-0.6,2.1-0.6c1.5,0,2.5,0.6,3.2,1.8v-5.8h1.3v10.2c0,1.2,0.1,2.4,0.3,3.6h-1.2l-0.4-1.5c-0.3,0.5-0.7,1-1.2,1.3
	s-1.2,0.5-2,0.5S194.4,185.3,193.8,184.9L193.8,184.9L193.8,184.9z M198.3,183.3c0.5-0.7,0.8-1.6,0.8-2.8s-0.3-2.2-0.8-2.9
	s-1.2-1.1-2.1-1.1s-1.7,0.3-2.2,1s-0.8,1.7-0.8,2.9s0.3,2.2,0.8,2.8c0.5,0.7,1.3,1,2.2,1s1.6-0.3,2.1-1l0,0V183.3z"/>
<path class="st0" d="M204.8,184.8c-0.7-0.4-1.2-1-1.6-1.8c-0.4-0.8-0.5-1.6-0.5-2.6s0.2-1.9,0.6-2.7s0.9-1.4,1.6-1.8
	s1.5-0.6,2.3-0.6s1.8,0.3,2.4,0.8c0.7,0.5,1.2,1.2,1.5,2s0.5,1.7,0.4,2.6H204c0,0.9,0.2,1.6,0.6,2.2s0.8,0.9,1.3,1.2
	c0.5,0.2,1,0.3,1.4,0.3s1-0.1,1.4-0.3s0.7-0.5,1-0.8l1.3,0.4c-0.4,0.6-0.9,1-1.5,1.4c-0.6,0.3-1.4,0.5-2.2,0.5
	S205.5,185.4,204.8,184.8L204.8,184.8L204.8,184.8z M209.8,178.2c-0.2-0.5-0.6-0.9-1-1.2s-1-0.5-1.6-0.5s-1.5,0.2-2.1,0.7
	s-0.9,1.3-1.1,2.3h6.1c0-0.5-0.1-1-0.4-1.4l0,0L209.8,178.2z"/>
<path class="st0" d="M213.3,185.2c-0.2-0.2-0.3-0.5-0.3-0.8s0.1-0.6,0.3-0.8s0.5-0.3,0.8-0.3s0.6,0.1,0.8,0.3s0.3,0.5,0.3,0.8
	s-0.1,0.6-0.3,0.8s-0.5,0.3-0.8,0.3S213.6,185.4,213.3,185.2z"/>
<path class="st0" d="M222.7,172.2h8.2v1.3h-6.8v4.5h6.7v1.3h-6.7v6.1h-1.4v-13.1l0,0V172.2z"/>
<path class="st0" d="M234.9,185c-0.7-0.4-1.3-0.9-1.7-1.7s-0.7-1.7-0.7-2.8s0.2-2,0.7-2.8s1-1.3,1.7-1.7s1.4-0.5,2.2-0.5
	s1.5,0.2,2.2,0.5s1.3,0.9,1.7,1.7s0.7,1.7,0.7,2.8s-0.2,2.1-0.7,2.8c-0.4,0.8-1,1.3-1.7,1.7s-1.4,0.5-2.2,0.5S235.6,185.3,234.9,185
	z M238.6,183.9c0.5-0.3,0.9-0.7,1.1-1.3c0.3-0.6,0.4-1.3,0.4-2.2s-0.1-1.6-0.4-2.2c-0.3-0.6-0.7-1-1.1-1.3c-0.5-0.3-1-0.4-1.5-0.4
	s-1.1,0.1-1.5,0.4c-0.5,0.3-0.9,0.7-1.1,1.3c-0.3,0.6-0.4,1.3-0.4,2.2s0.1,1.6,0.4,2.2c0.3,0.6,0.7,1,1.1,1.3c0.5,0.3,1,0.4,1.5,0.4
	S238.2,184.2,238.6,183.9z M234.7,173.3c-0.2-0.2-0.3-0.4-0.3-0.7s0-0.5,0.3-0.7c0.2-0.2,0.4-0.3,0.7-0.3s0.5,0,0.7,0.3
	c0.2,0.2,0.3,0.4,0.3,0.7s0,0.5-0.3,0.6c-0.2,0.2-0.4,0.3-0.7,0.3S234.9,173.5,234.7,173.3L234.7,173.3L234.7,173.3z M238,173.3
	c-0.2-0.2-0.3-0.4-0.3-0.6s0-0.5,0.3-0.7c0.2-0.2,0.4-0.3,0.7-0.3s0.5,0,0.7,0.3c0.2,0.2,0.3,0.4,0.3,0.7s0,0.5-0.3,0.6
	c-0.2,0.2-0.4,0.3-0.7,0.3S238.2,173.6,238,173.3z"/>
<path class="st0" d="M243.7,175.6h1l0.4,1.8c0.3-0.6,0.8-1,1.4-1.4c0.6-0.4,1.3-0.5,2.1-0.5v1.3c-1.3,0-2.2,0.4-2.7,1.1
	c-0.5,0.7-0.8,1.7-0.8,3.1v4.3h-1.3L243.7,175.6L243.7,175.6L243.7,175.6z"/>
<path class="st0" d="M255.2,175.6h1l0.3,1.5c0.3-0.5,0.6-0.9,1.2-1.2c0.5-0.3,1.1-0.5,1.8-0.5c1.4,0,2.4,0.6,2.8,1.8
	c0.7-1.2,1.8-1.8,3.2-1.8s1.9,0.3,2.4,1s0.8,1.5,0.8,2.6v6.3h-1.3v-5.9c0-0.9-0.2-1.6-0.5-2.1s-0.9-0.8-1.7-0.8s-1.4,0.3-1.9,0.9
	s-0.7,1.4-0.7,2.5v5.3h-1.3v-5.9c0-0.9-0.2-1.6-0.5-2.1s-0.9-0.8-1.7-0.8s-1.4,0.3-1.9,0.9c-0.5,0.6-0.7,1.4-0.7,2.5v5.3h-1.3v-9.7
	l0,0L255.2,175.6z"/>
<path class="st0" d="M271.7,184.8c-0.6-0.5-0.9-1.1-0.9-2s0.5-1.9,1.6-2.5s2.7-0.9,5-1.1V179c0-0.8-0.2-1.4-0.6-1.9
	c-0.4-0.4-1-0.7-1.8-0.7s-1.1,0.1-1.6,0.4c-0.4,0.3-0.7,0.7-0.8,1.2l-1.3-0.4c0.3-0.7,0.7-1.3,1.4-1.7c0.7-0.4,1.4-0.6,2.3-0.6
	c1.3,0,2.2,0.3,2.8,1c0.6,0.6,0.9,1.6,0.9,2.9v2.3c0,1.3,0.1,2.6,0.4,3.7h-1.2l-0.4-1.5c-0.3,0.5-0.7,0.9-1.2,1.2
	c-0.6,0.3-1.3,0.5-2.1,0.5s-1.8-0.2-2.4-0.7l0,0L271.7,184.8z M276.5,183.7c0.6-0.5,0.9-1.3,0.9-2.3v-1.1c-1.8,0.1-3.1,0.4-3.9,0.8
	c-0.8,0.4-1.3,0.9-1.3,1.7s0.2,0.9,0.6,1.2s0.9,0.5,1.6,0.5s1.6-0.2,2.2-0.7l0,0L276.5,183.7z M273.6,173.6
	c-0.4-0.4-0.6-0.9-0.6-1.4s0.2-1,0.6-1.4s0.9-0.6,1.4-0.6s1,0.2,1.4,0.6c0.4,0.4,0.6,0.9,0.6,1.4s-0.2,1-0.6,1.4s-0.9,0.6-1.4,0.6
	S274,174,273.6,173.6z M275.7,172.9c0.2-0.2,0.3-0.5,0.3-0.7s-0.1-0.5-0.3-0.7c-0.2-0.2-0.4-0.3-0.7-0.3s-0.5,0.1-0.7,0.3
	s-0.3,0.5-0.3,0.8s0.1,0.5,0.3,0.7s0.5,0.3,0.7,0.3s0.5-0.1,0.7-0.3l0,0V172.9z"/>
<path class="st0" d="M282.3,185.1c-0.3-0.1-0.5-0.3-0.6-0.6s-0.2-0.7-0.2-1.3v-11.8h1.3v11.7c0,0.4,0,0.7,0.2,0.8
	c0.1,0.1,0.4,0.2,0.8,0.2h0.7v1.2h-0.9C283,185.3,282.6,185.3,282.3,185.1L282.3,185.1L282.3,185.1z"/>
<path class="st0" d="M287,176.6h-1.3v-1.1h2.6v9.7H287L287,176.6L287,176.6L287,176.6z M286.8,173.3c-0.2-0.2-0.3-0.4-0.3-0.7
	s0.1-0.5,0.3-0.7c0.2-0.2,0.4-0.3,0.7-0.3s0.6,0.1,0.8,0.3s0.3,0.5,0.3,0.8s-0.1,0.5-0.3,0.7c-0.2,0.2-0.5,0.3-0.7,0.3
	s-0.5-0.1-0.7-0.3l0,0L286.8,173.3z"/>
<path class="st0" d="M291.3,175.6h1l0.3,1.5c0.3-0.5,0.7-0.9,1.2-1.2s1.2-0.5,1.9-0.5c1.1,0,1.9,0.3,2.5,1c0.5,0.6,0.8,1.5,0.8,2.6
	v6.3h-1.3v-5.9c0-0.9-0.2-1.6-0.5-2.1s-0.9-0.8-1.8-0.8s-1.5,0.3-2.1,0.9c-0.5,0.6-0.8,1.4-0.8,2.5v5.3h-1.3L291.3,175.6
	L291.3,175.6L291.3,175.6z"/>
<path class="st0" d="M301.9,175.6h1l0.4,1.8c0.3-0.6,0.8-1,1.4-1.4s1.3-0.5,2.1-0.5v1.3c-1.3,0-2.2,0.4-2.7,1.1
	c-0.5,0.7-0.8,1.7-0.8,3.1v4.3H302v-9.7l0,0L301.9,175.6z"/>
<path class="st0" d="M309.5,176.6h-1.3v-1.1h2.6v9.7h-1.3L309.5,176.6L309.5,176.6L309.5,176.6z M309.3,173.3
	c-0.2-0.2-0.3-0.4-0.3-0.7s0.1-0.5,0.3-0.7c0.2-0.2,0.4-0.3,0.7-0.3s0.6,0.1,0.8,0.3s0.3,0.5,0.3,0.8s-0.1,0.5-0.3,0.7
	c-0.2,0.2-0.5,0.3-0.7,0.3s-0.5-0.1-0.7-0.3l0,0L309.3,173.3z"/>
<path class="st0" d="M313.8,171.4h1.3v8.7l4.1-4.6h1.6l-3.6,4l4.2,5.7h-1.6l-3.4-4.7l-1.2,1.3v3.5h-1.3v-13.9l0,0H313.8z"/>
<path class="st0" d="M324.2,185.1c-0.3-0.1-0.5-0.3-0.6-0.7s-0.2-0.8-0.2-1.5v-6.3h-1.7v-1.1h1.7v-2.4h1.3v2.4h2v1.1h-2v6.1
	c0,0.4,0,0.7,0,0.8c0,0.2,0.1,0.3,0.3,0.4c0.1,0,0.4,0,0.7,0h1v1.2h-1.2c-0.6,0-1,0-1.4-0.2l0,0L324.2,185.1z"/>
<path class="st0" d="M329,184.8c-0.6-0.5-0.9-1.1-0.9-2s0.5-1.9,1.6-2.5s2.7-0.9,5-1.1V179c0-0.8-0.2-1.4-0.6-1.9
	c-0.4-0.4-1-0.7-1.8-0.7s-1.1,0.1-1.6,0.4c-0.4,0.3-0.7,0.7-0.8,1.2l-1.3-0.4c0.3-0.7,0.7-1.3,1.4-1.7c0.7-0.4,1.4-0.6,2.3-0.6
	c1.3,0,2.2,0.3,2.8,1c0.6,0.6,0.9,1.6,0.9,2.9v2.3c0,1.3,0.1,2.6,0.4,3.7h-1.2l-0.4-1.5c-0.3,0.5-0.7,0.9-1.2,1.2
	c-0.6,0.3-1.3,0.5-2.1,0.5s-1.8-0.2-2.4-0.7l0,0L329,184.8z M333.8,183.7c0.6-0.5,0.9-1.3,0.9-2.3v-1.1c-1.8,0.1-3.1,0.4-3.9,0.8
	c-0.8,0.4-1.3,0.9-1.3,1.7s0.2,0.9,0.6,1.2s0.9,0.5,1.6,0.5s1.6-0.2,2.2-0.7l0,0L333.8,183.7z"/>
<path class="st0" d="M340.1,184.9c-0.6-0.4-1.1-1-1.5-1.7c-0.4-0.8-0.6-1.7-0.6-2.7s0.2-1.9,0.5-2.7c0.4-0.8,0.9-1.4,1.5-1.8
	c0.6-0.4,1.3-0.6,2.1-0.6c1.5,0,2.5,0.6,3.2,1.8v-5.8h1.3v10.2c0,1.2,0.1,2.4,0.3,3.6h-1.2l-0.4-1.5c-0.3,0.5-0.7,1-1.2,1.3
	s-1.2,0.5-2,0.5S340.7,185.3,340.1,184.9L340.1,184.9L340.1,184.9z M344.6,183.3c0.5-0.7,0.8-1.6,0.8-2.8s-0.3-2.2-0.8-2.9
	s-1.2-1.1-2.1-1.1s-1.7,0.3-2.2,1s-0.8,1.7-0.8,2.9s0.3,2.2,0.8,2.8c0.5,0.7,1.3,1,2.2,1s1.6-0.3,2.1-1l0,0V183.3z"/>
<path class="st0" d="M355.4,176.6h-1.7v-1.1h1.7v-1.8c0-0.7,0-1.2,0.2-1.5s0.4-0.6,0.7-0.7c0.3-0.1,0.8-0.2,1.5-0.2h1v1.2h-1
	c-0.4,0-0.7,0-0.8,0.2c-0.1,0.2-0.2,0.5-0.2,1v2h2v1.1h-2v8.6h-1.3v-8.6l0,0L355.4,176.6z"/>
<path class="st0" d="M361.7,185c-0.7-0.4-1.3-0.9-1.7-1.7c-0.4-0.8-0.7-1.7-0.7-2.8s0.2-2,0.7-2.8s1-1.3,1.7-1.7s1.4-0.5,2.2-0.5
	s1.5,0.2,2.2,0.5s1.3,0.9,1.7,1.7s0.7,1.7,0.7,2.8s-0.2,2.1-0.7,2.8c-0.4,0.8-1,1.3-1.7,1.7s-1.4,0.5-2.2,0.5S362.4,185.3,361.7,185
	z M365.4,183.9c0.5-0.3,0.9-0.7,1.1-1.3c0.3-0.6,0.4-1.3,0.4-2.2s-0.1-1.6-0.4-2.2c-0.3-0.6-0.7-1-1.1-1.3c-0.5-0.3-1-0.4-1.5-0.4
	s-1.1,0.1-1.5,0.4c-0.5,0.3-0.9,0.7-1.1,1.3c-0.3,0.6-0.4,1.3-0.4,2.2s0.1,1.6,0.4,2.2c0.3,0.6,0.7,1,1.1,1.3c0.5,0.3,1,0.4,1.5,0.4
	S365,184.2,365.4,183.9z M361.6,173.3c-0.2-0.2-0.3-0.4-0.3-0.7s0-0.5,0.3-0.7c0.2-0.2,0.4-0.3,0.7-0.3s0.5,0,0.7,0.3
	c0.2,0.2,0.3,0.4,0.3,0.7s0,0.5-0.3,0.6c-0.2,0.2-0.4,0.3-0.7,0.3S361.8,173.5,361.6,173.3L361.6,173.3L361.6,173.3z M364.9,173.3
	c-0.2-0.2-0.3-0.4-0.3-0.6s0-0.5,0.3-0.7c0.2-0.2,0.4-0.3,0.7-0.3s0.5,0,0.7,0.3c0.2,0.2,0.3,0.4,0.3,0.7s0,0.5-0.3,0.6
	s-0.4,0.3-0.7,0.3S365.1,173.6,364.9,173.3z"/>
<path class="st0" d="M370.6,175.6h1l0.4,1.8c0.3-0.6,0.8-1,1.4-1.4s1.3-0.5,2.1-0.5v1.3c-1.3,0-2.2,0.4-2.7,1.1
	c-0.5,0.7-0.8,1.7-0.8,3.1v4.3h-1.3v-9.7l0,0L370.6,175.6z"/>
<path class="st0" d="M377,184.8c-0.6-0.5-0.9-1.1-0.9-2s0.5-1.9,1.6-2.5s2.7-0.9,5-1.1V179c0-0.8-0.2-1.4-0.6-1.9
	c-0.4-0.4-1-0.7-1.8-0.7s-1.1,0.1-1.6,0.4c-0.4,0.3-0.7,0.7-0.8,1.2l-1.3-0.4c0.3-0.7,0.7-1.3,1.4-1.7c0.7-0.4,1.4-0.6,2.3-0.6
	c1.3,0,2.2,0.3,2.8,1c0.6,0.6,0.9,1.6,0.9,2.9v2.3c0,1.3,0.1,2.6,0.4,3.7h-1.2l-0.4-1.5c-0.3,0.5-0.7,0.9-1.2,1.2
	c-0.6,0.3-1.3,0.5-2.1,0.5s-1.8-0.2-2.4-0.7l0,0L377,184.8z M381.9,183.7c0.6-0.5,0.9-1.3,0.9-2.3v-1.1c-1.8,0.1-3.1,0.4-3.9,0.8
	c-0.8,0.4-1.3,0.9-1.3,1.7s0.2,0.9,0.6,1.2s0.9,0.5,1.6,0.5s1.6-0.2,2.2-0.7l0,0L381.9,183.7z M378.1,173.3
	c-0.2-0.2-0.3-0.4-0.3-0.7s0-0.5,0.3-0.7c0.2-0.2,0.4-0.3,0.7-0.3s0.5,0,0.7,0.3c0.2,0.2,0.3,0.4,0.3,0.7s0,0.5-0.3,0.6
	c-0.2,0.2-0.4,0.3-0.7,0.3S378.3,173.5,378.1,173.3L378.1,173.3L378.1,173.3z M381.4,173.3c-0.2-0.2-0.3-0.4-0.3-0.6s0-0.5,0.3-0.7
	c0.2-0.2,0.4-0.3,0.7-0.3s0.5,0,0.7,0.3c0.2,0.2,0.3,0.4,0.3,0.7s0,0.5-0.3,0.6c-0.2,0.2-0.4,0.3-0.7,0.3S381.6,173.6,381.4,173.3z"
	/>
<path class="st0" d="M387,175.6h1l0.3,1.5c0.3-0.5,0.7-0.9,1.2-1.2s1.2-0.5,1.9-0.5c1.1,0,1.9,0.3,2.5,1c0.5,0.6,0.8,1.5,0.8,2.6
	v6.3h-1.3v-5.9c0-0.9-0.2-1.6-0.5-2.1s-0.9-0.8-1.8-0.8s-1.5,0.3-2.1,0.9c-0.5,0.6-0.8,1.4-0.8,2.5v5.3h-1.3L387,175.6L387,175.6
	L387,175.6z"/>
<path class="st0" d="M399,184.9c-0.6-0.4-1.1-1-1.5-1.7c-0.4-0.8-0.6-1.7-0.6-2.7s0.2-1.9,0.5-2.7c0.4-0.8,0.9-1.4,1.5-1.8
	c0.6-0.4,1.3-0.6,2.1-0.6c1.5,0,2.5,0.6,3.2,1.8v-5.8h1.3v10.2c0,1.2,0.1,2.4,0.3,3.6h-1.2l-0.4-1.5c-0.3,0.5-0.7,1-1.2,1.3
	s-1.2,0.5-2,0.5S399.6,185.3,399,184.9L399,184.9L399,184.9z M403.4,183.3c0.5-0.7,0.8-1.6,0.8-2.8s-0.3-2.2-0.8-2.9
	s-1.2-1.1-2.1-1.1s-1.7,0.3-2.2,1s-0.8,1.7-0.8,2.9s0.3,2.2,0.8,2.8c0.5,0.7,1.3,1,2.2,1s1.6-0.3,2.1-1l0,0V183.3z"/>
<path class="st0" d="M408.5,175.6h1l0.4,1.8c0.3-0.6,0.8-1,1.4-1.4s1.3-0.5,2.1-0.5v1.3c-1.3,0-2.2,0.4-2.7,1.1
	c-0.5,0.7-0.8,1.7-0.8,3.1v4.3h-1.3v-9.7l0,0L408.5,175.6z"/>
<path class="st0" d="M416,176.6h-1.3v-1.1h2.6v9.7H416L416,176.6L416,176.6L416,176.6z M415.8,173.3c-0.2-0.2-0.3-0.4-0.3-0.7
	s0.1-0.5,0.3-0.7c0.2-0.2,0.4-0.3,0.7-0.3s0.6,0.1,0.8,0.3s0.3,0.5,0.3,0.8s-0.1,0.5-0.3,0.7c-0.2,0.2-0.5,0.3-0.7,0.3
	s-0.5-0.1-0.7-0.3l0,0L415.8,173.3z"/>
<path class="st0" d="M420.3,175.6h1l0.3,1.5c0.3-0.5,0.7-0.9,1.2-1.2s1.2-0.5,1.9-0.5c1.1,0,1.9,0.3,2.5,1c0.5,0.6,0.8,1.5,0.8,2.6
	v6.3h-1.3v-5.9c0-0.9-0.2-1.6-0.5-2.1s-0.9-0.8-1.8-0.8s-1.5,0.3-2.1,0.9c-0.5,0.6-0.8,1.4-0.8,2.5v5.3h-1.3L420.3,175.6
	L420.3,175.6L420.3,175.6z"/>
<path class="st0" d="M432.4,188.4c-0.7-0.4-1.1-0.9-1.4-1.7l1.3-0.4c0.1,0.5,0.4,0.8,0.8,1.1s1,0.4,1.6,0.4s1.5-0.2,1.9-0.6
	c0.5-0.4,0.7-1.1,0.7-2v-1.8c-0.7,1.2-1.7,1.8-3.1,1.8s-1.4-0.2-2.1-0.5c-0.6-0.4-1.1-0.9-1.5-1.6c-0.4-0.7-0.6-1.6-0.6-2.6
	s0.2-1.9,0.5-2.6c0.4-0.8,0.9-1.3,1.5-1.7s1.3-0.6,2.1-0.6s1.4,0.2,1.8,0.5c0.5,0.3,0.9,0.7,1.2,1.3l0.4-1.6h1v9.7
	c0,1.2-0.4,2.1-1.1,2.8s-1.7,1-3,1s-1.6-0.2-2.3-0.6l0,0L432.4,188.4z M436.7,183.1c0.5-0.6,0.8-1.5,0.8-2.8s-0.3-2.2-0.8-2.8
	s-1.2-0.9-2.1-0.9s-1.6,0.3-2.1,1s-0.8,1.6-0.8,2.8s0.3,2,0.8,2.7c0.5,0.6,1.3,1,2.1,1s1.5-0.3,2.1-0.9l0,0V183.1z"/>
<path class="st0" d="M441.3,185.2c-0.2-0.2-0.3-0.5-0.3-0.8s0.1-0.6,0.3-0.8s0.5-0.3,0.8-0.3s0.6,0.1,0.8,0.3s0.3,0.5,0.3,0.8
	s-0.1,0.6-0.3,0.8s-0.5,0.3-0.8,0.3S441.6,185.4,441.3,185.2z"/>
</svg>
