<?xml version="1.0" encoding="utf-8"?>
<!-- Generator: Adobe Illustrator 27.0.0, SVG Export Plug-In . SVG Version: 6.00 Build 0)  -->
<svg version="1.1" id="Layer_1" xmlns="http://www.w3.org/2000/svg" xmlns:xlink="http://www.w3.org/1999/xlink" x="0px" y="0px"
	 viewBox="0 0 364.29 399.89" style="enable-background:new 0 0 364.29 399.89;" xml:space="preserve">
<style type="text/css">
	.st0{fill:#071D3B;}
	.st1{fill:#FFFFFF;}
</style>
<rect x="-4.18" y="-2.22" class="st0" width="368.48" height="402.11"/>
<g>
	<path class="st1" d="M59.19,88.24h86.14l12.38-9.33H59.19c-2.58,0-4.66,2.09-4.66,4.66C54.53,86.15,56.61,88.24,59.19,88.24z
		 M16.33,165.82h120.6v-9.33H16.33c-2.58,0-4.66,2.09-4.66,4.66S13.76,165.82,16.33,165.82z M10.86,191.68h128.66l0.81-9.33H10.86
		c-2.58,0-4.66,2.09-4.66,4.66S8.28,191.68,10.86,191.68z M138.08,208.21H10.86c-2.58,0-4.66,2.09-4.66,4.66
		c0,2.58,2.09,4.66,4.66,4.66h126.41L138.08,208.21z M153.39,36.52h57.52c2.58,0,4.66-2.09,4.66-4.66c0-2.58-2.09-4.66-4.66-4.66
		h-57.52c-2.58,0-4.66,2.09-4.66,4.66C148.73,34.43,150.82,36.52,153.39,36.52z M227.35,165.82H348c2.58,0,4.66-2.09,4.66-4.66
		s-2.09-4.66-4.66-4.66H227.35V165.82z M224.77,191.68h128.66c2.58,0,4.66-2.09,4.66-4.66s-2.09-4.66-4.66-4.66H223.96
		L224.77,191.68z M135.83,234.07H16.31c-2.58,0-4.66,2.09-4.66,4.66c0,2.57,2.09,4.66,4.66,4.66h118.7L135.83,234.07z M89.97,62.38
		h184.37c2.58,0,4.66-2.09,4.66-4.66c0-2.58-2.09-4.66-4.66-4.66H89.97c-2.58,0-4.66,2.09-4.66,4.66
		C85.31,60.29,87.4,62.38,89.97,62.38z M218.95,88.24h86.18c2.58,0,4.66-2.09,4.66-4.66c0-2.58-2.09-4.66-4.66-4.66h-98.55
		L218.95,88.24z M325.43,285.79h-92.46l0.81,9.33h91.65c2.58,0,4.66-2.09,4.66-4.66C330.09,287.88,328.01,285.79,325.43,285.79z
		 M347.93,234.07H228.47l0.81,9.33h118.65c2.58,0,4.66-2.09,4.66-4.66C352.59,236.16,350.5,234.07,347.93,234.07z M133.57,259.93
		H25.12c-2.58,0-4.66,2.09-4.66,4.66c0,2.58,2.09,4.66,4.66,4.66h107.64L133.57,259.93z M339.17,259.93H230.72l0.81,9.33h107.64
		c2.58,0,4.66-2.09,4.66-4.66C343.83,262.02,341.75,259.93,339.17,259.93z M131.32,285.79H38.86c-2.58,0-4.66,2.09-4.66,4.66
		c0,2.58,2.09,4.66,4.66,4.66h91.65L131.32,285.79z M353.43,208.21H226.21l0.81,9.33h126.41c2.58,0,4.66-2.09,4.66-4.66
		C358.1,210.3,356.01,208.21,353.43,208.21z M284.05,109.43c0,2.58,2.09,4.66,4.66,4.66h36.71c2.83,0,5.07-2.53,4.6-5.45
		c-0.37-2.29-2.53-3.88-4.85-3.88h-36.46C286.14,104.77,284.05,106.86,284.05,109.43z M263.8,135.29c0,2.58,2.09,4.66,4.66,4.66
		h70.72c2.83,0,5.07-2.52,4.6-5.45c-0.37-2.29-2.53-3.88-4.85-3.88h-70.47C265.89,130.63,263.8,132.72,263.8,135.29z M269.18,114.1
		c2.58,0,4.66-2.09,4.66-4.66c0-2.58-2.09-4.66-4.66-4.66h-51.16c-0.02-3.52-1.67-6.83-4.48-8.94l-24.62-18.55
		c-4.01-3.03-9.55-3.03-13.56,0l-24.62,18.55c-2.81,2.12-4.47,5.43-4.48,8.94h-23.7c-2.58,0-4.66,2.09-4.66,4.66
		c0,2.58,2.09,4.66,4.66,4.66h33.03v-9.27c0-0.61,0.29-1.18,0.77-1.55l24.62-18.55c0.43-0.32,0.87-0.39,1.17-0.39
		c0.29,0,0.74,0.07,1.17,0.39l24.62,18.55c0.48,0.36,0.77,0.94,0.77,1.55v9.27H269.18z M274.29,337.51H89.96
		c-2.58,0-4.66,2.09-4.66,4.66c0,2.57,2.09,4.66,4.66,4.66h184.33c2.58,0,4.66-2.09,4.66-4.66
		C278.95,339.6,276.86,337.51,274.29,337.51z M210.88,363.37h-57.5c-2.58,0-4.66,2.09-4.66,4.66c0,2.57,2.09,4.66,4.66,4.66h57.5
		c2.58,0,4.66-2.09,4.66-4.66C215.54,365.46,213.45,363.37,210.88,363.37z M305.09,311.65h-79.22l-12.7-145.83h4.86v-25.86h30.9
		c2.58,0,4.66-2.09,4.66-4.66c0-2.57-2.09-4.66-4.66-4.66H208.7v25.86h-21.89c-2.58,0-4.67,2.09-4.67,4.66
		c0,2.58,2.09,4.67,4.67,4.67h17l13.51,155.16h87.77c2.58,0,4.66-2.09,4.66-4.66C309.75,313.74,307.67,311.65,305.09,311.65z
		 M173.66,316.31c0-2.58-2.09-4.66-4.66-4.66h-21.21l13.51-155.16h-5.71v-25.86H93.27c-2.58,0-4.66,2.09-4.66,4.66
		c0,2.58,2.09,4.66,4.66,4.66h52.99v25.86h4.87l-12.7,145.83H59.17c-2.73,0-4.92,2.35-4.64,5.14c0.24,2.43,2.47,4.18,4.9,4.18H169
		C171.57,320.98,173.66,318.89,173.66,316.31z M25.36,139.96h48.37c2.58,0,4.66-2.09,4.66-4.66c0-2.57-2.09-4.66-4.66-4.66H25.11
		c-2.83,0-5.07,2.52-4.6,5.45C20.89,138.37,23.04,139.96,25.36,139.96z M39.11,114.1h63.91c2.58,0,4.66-2.09,4.66-4.66
		c0-2.58-2.09-4.66-4.66-4.66H38.86c-2.83,0-5.07,2.52-4.6,5.45C34.63,112.51,36.78,114.1,39.11,114.1z"/>
</g>
</svg>
