<?xml version="1.0" encoding="utf-8"?>
<!-- Generator: Adobe Illustrator 27.0.0, SVG Export Plug-In . SVG Version: 6.00 Build 0)  -->
<svg version="1.1" id="Layer_1" xmlns="http://www.w3.org/2000/svg" xmlns:xlink="http://www.w3.org/1999/xlink" x="0px" y="0px"
	 viewBox="0 0 342.33 399.84" style="enable-background:new 0 0 342.33 399.84;" xml:space="preserve">
<style type="text/css">
	.st0{fill:#173C66;}
	.st1{fill:url(#SVGID_1_);}
</style>
<g>
	<g>
		<g>
			<path class="st0" d="M13.41,330.72v27.01h16.83v5.7h-23v-32.72H13.41z"/>
			<path class="st0" d="M36.97,363.44v-32.72h6.12v32.72H36.97z"/>
			<path class="st0" d="M75.52,338.71c-2.2-2.1-5.47-3.27-8.32-3.27c-7.01,0-11.26,5.33-11.26,12.06c0,5.38,3.13,10.94,11.26,10.94
				c2.57,0,4.81-0.56,7.38-2.62v-5.8h-8.37v-5.51h14.02v13.79c-3.23,3.69-7.29,5.89-13.04,5.89c-12.29,0-17.29-8.09-17.29-16.69
				c0-9.21,5.75-17.71,17.29-17.71c4.39,0,8.79,1.68,12.15,5L75.52,338.71z"/>
			<path class="st0" d="M109.92,363.48v-13.23H93.84v13.23h-6.17v-32.72h6.17v13.79h16.08v-13.79h6.12v32.72H109.92z"/>
			<path class="st0" d="M132.63,336.33h-10.38v-5.61c9.44,0,17.43,0,26.92,0v5.61H138.8v27.11h-6.17V336.33z"/>
			<path class="st0" d="M155.25,363.44v-32.67h23.51v5.94h-17.34v8.93h16.4v5.7h-16.4v12.11H155.25z"/>
			<path class="st0" d="M185.86,363.44v-32.72h6.12v32.72H185.86z"/>
			<path class="st0" d="M221.62,330.67h6.17v32.76h-3.83v0.05l-17.2-22.11v22.06h-6.17v-32.72h5L221.62,351V330.67z"/>
			<path class="st0" d="M264.57,346.8c0.14,8.27-4.91,16.64-16.36,16.64c-4.02,0-8.83,0-12.85,0v-32.72c4.02,0,8.83,0,12.85,0
				C259.43,330.72,264.43,338.71,264.57,346.8z M241.48,357.5h6.73c7.43,0,10.38-5.42,10.24-10.75
				c-0.14-5.09-3.13-10.19-10.24-10.19h-6.73V357.5z"/>
			<path class="st0" d="M295.36,363.44h-24.49c0-10.89,0-21.83,0-32.72h24.49v5.98H277v7.53h17.71v5.75H277v7.38h18.37V363.44z"/>
			<path class="st0" d="M331.49,363.44h-7.34l-9.53-10.94h-5.94v10.94h-6.17v-32.76c5.19,0,10.38,0.05,15.56,0.05
				c7.71,0.05,11.78,5.19,11.78,10.84c0,4.49-2.06,9.02-8.27,10.28l9.91,11.17V363.44z M308.68,336.47v10.47h9.39
				c3.93,0,5.61-2.62,5.61-5.24c0-2.62-1.73-5.23-5.61-5.23H308.68z"/>
		</g>
		<g>
			<path class="st0" d="M15.72,379.95c0-3.31,2.53-5.73,5.94-5.73c1.73,0,3.23,0.59,4.26,1.75l-1.04,1.01
				c-0.86-0.91-1.92-1.33-3.15-1.33c-2.53,0-4.4,1.83-4.4,4.31c0,2.48,1.87,4.31,4.4,4.31c1.23,0,2.29-0.43,3.15-1.34l1.04,1.01
				c-1.02,1.15-2.53,1.76-4.27,1.76C18.25,385.68,15.72,383.27,15.72,379.95z"/>
			<path class="st0" d="M44.24,374.35v11.2h-1.6v-4.99H36.2v4.99h-1.6v-11.2h1.6v4.82h6.43v-4.82H44.24z"/>
			<path class="st0" d="M61.13,382.75h-5.95l-1.23,2.8H52.3l5.07-11.2h1.58l5.09,11.2h-1.68L61.13,382.75z M60.57,381.47l-2.42-5.49
				l-2.42,5.49H60.57z"/>
			<path class="st0" d="M72.11,374.35h1.6v9.81h6.07v1.39h-7.67V374.35z"/>
			<path class="st0" d="M88.01,374.35h1.6v9.81h6.07v1.39h-7.67V374.35z"/>
			<path class="st0" d="M112.05,384.16v1.39h-8.13v-11.2h7.91v1.39h-6.31v3.44h5.62v1.36h-5.62v3.62H112.05z"/>
			<path class="st0" d="M130.67,374.35v11.2h-1.31l-6.72-8.36v8.36h-1.6v-11.2h1.31l6.72,8.35v-8.35H130.67z"/>
			<path class="st0" d="M148.19,379.89h1.54v4.37c-1.12,0.94-2.67,1.42-4.24,1.42c-3.44,0-5.97-2.42-5.97-5.73s2.53-5.73,6-5.73
				c1.78,0,3.28,0.59,4.31,1.73l-0.99,0.99c-0.93-0.9-1.98-1.3-3.25-1.3c-2.59,0-4.47,1.81-4.47,4.31c0,2.46,1.87,4.31,4.45,4.31
				c0.94,0,1.82-0.21,2.62-0.72V379.89z"/>
			<path class="st0" d="M167.31,384.16v1.39h-8.13v-11.2h7.91v1.39h-6.31v3.44h5.62v1.36h-5.62v3.62H167.31z"/>
			<path class="st0" d="M194.14,382.75h-5.95l-1.23,2.8h-1.65l5.07-11.2h1.58l5.09,11.2h-1.68L194.14,382.75z M193.58,381.47
				l-2.42-5.49l-2.42,5.49H193.58z"/>
			<path class="st0" d="M204.04,379.95c0-3.31,2.53-5.73,5.94-5.73c1.73,0,3.23,0.59,4.26,1.75l-1.04,1.01
				c-0.86-0.91-1.92-1.33-3.15-1.33c-2.53,0-4.4,1.83-4.4,4.31c0,2.48,1.87,4.31,4.4,4.31c1.23,0,2.29-0.43,3.15-1.34l1.04,1.01
				c-1.02,1.15-2.53,1.76-4.27,1.76C206.57,385.68,204.04,383.27,204.04,379.95z"/>
			<path class="st0" d="M221.77,379.95c0-3.31,2.53-5.73,5.94-5.73c1.73,0,3.23,0.59,4.26,1.75l-1.04,1.01
				c-0.86-0.91-1.92-1.33-3.15-1.33c-2.53,0-4.4,1.83-4.4,4.31c0,2.48,1.87,4.31,4.4,4.31c1.23,0,2.29-0.43,3.15-1.34l1.04,1.01
				c-1.02,1.15-2.53,1.76-4.27,1.76C224.3,385.68,221.77,383.27,221.77,379.95z"/>
			<path class="st0" d="M248.78,384.16v1.39h-8.13v-11.2h7.91v1.39h-6.31v3.44h5.62v1.36h-5.62v3.62H248.78z"/>
			<path class="st0" d="M266.81,378.26c0,2.43-1.76,3.91-4.67,3.91h-2.77v3.39h-1.6v-11.2h4.37
				C265.05,374.35,266.81,375.82,266.81,378.26z M265.21,378.26c0-1.6-1.07-2.51-3.12-2.51h-2.72v5.03h2.72
				C264.14,380.77,265.21,379.86,265.21,378.26z"/>
			<path class="st0" d="M277.44,375.74h-3.84v-1.39h9.27v1.39h-3.84v9.81h-1.58V375.74z"/>
			<path class="st0" d="M299.13,384.16v1.39H291v-11.2h7.91v1.39h-6.31v3.44h5.62v1.36h-5.62v3.62H299.13z"/>
			<path class="st0" d="M308.12,374.35h4.72c3.6,0,6.05,2.27,6.05,5.6c0,3.33-2.45,5.6-6.05,5.6h-4.72V374.35z M312.75,384.16
				c2.77,0,4.55-1.7,4.55-4.21c0-2.51-1.78-4.21-4.55-4.21h-3.03v8.42H312.75z"/>
		</g>
	</g>
	<g>
		<path class="st0" d="M49.64,83.08h53.56c2.16,0,3.91-1.75,3.91-3.91c0-2.16-1.75-3.91-3.91-3.91H49.43
			c-2.37,0-4.25,2.12-3.85,4.56C45.89,81.75,47.69,83.08,49.64,83.08z M82.57,100.85c0-2.16-1.75-3.91-3.91-3.91H37.91
			c-2.37,0-4.25,2.12-3.85,4.56c0.31,1.92,2.12,3.25,4.06,3.25h40.53C80.82,104.75,82.57,103,82.57,100.85z M119.57,83.08h27.68
			v-7.77c0-0.51,0.24-0.99,0.65-1.3l20.63-15.55c0.36-0.27,0.73-0.33,0.98-0.33c0.25,0,0.62,0.06,0.98,0.33l20.63,15.55
			c0.4,0.31,0.65,0.79,0.65,1.3v7.77h50.68c2.16,0,3.91-1.75,3.91-3.91c0-2.16-1.75-3.91-3.91-3.91h-42.87
			c-0.01-2.95-1.4-5.72-3.76-7.49l-20.63-15.55c-3.36-2.54-8-2.54-11.36,0l-20.63,15.55c-2.35,1.77-3.74,4.55-3.76,7.49h-19.86
			c-2.16,0-3.91,1.75-3.91,3.91C115.66,81.33,117.41,83.08,119.57,83.08z M258.81,83.08h30.76c2.37,0,4.25-2.12,3.85-4.56
			c-0.31-1.92-2.12-3.25-4.06-3.25h-30.55c-2.16,0-3.91,1.75-3.91,3.91C254.9,81.33,256.65,83.08,258.81,83.08z M304.95,100.19
			c-0.31-1.92-2.12-3.25-4.06-3.25h-59.05c-2.16,0-3.91,1.75-3.91,3.91c0,2.16,1.75,3.91,3.91,3.91h59.26
			C303.47,104.75,305.35,102.64,304.95,100.19z M272.53,248.63h-66.39L195.5,126.42h4.07v-21.67h25.89c2.16,0,3.91-1.75,3.91-3.91
			c0-2.16-1.75-3.91-3.91-3.91h-33.71v21.67h-18.34c-2.16,0-3.91,1.75-3.91,3.91c0,2.16,1.75,3.91,3.91,3.91h14.24l11.32,130.02
			h73.55c2.16,0,3.91-1.75,3.91-3.91C276.44,250.38,274.69,248.63,272.53,248.63z M246.72,270.3H92.25c-2.16,0-3.91,1.75-3.91,3.91
			c0,2.16,1.75,3.91,3.91,3.91h154.47c2.16,0,3.91-1.75,3.91-3.91C250.63,272.05,248.88,270.3,246.72,270.3z M193.58,291.97H145.4
			c-2.16,0-3.91,1.75-3.91,3.91s1.75,3.91,3.91,3.91h48.18c2.16,0,3.91-1.75,3.91-3.91S195.74,291.97,193.58,291.97z M162.4,252.54
			L162.4,252.54c0-2.16-1.75-3.91-3.91-3.91h-17.78l11.32-130.03h-4.79V96.94H95.03c-2.16,0-3.91,1.75-3.91,3.91
			c0,2.16,1.75,3.91,3.91,3.91h44.4v21.67h4.08l-10.64,122.21H66.46c-2.29,0-4.12,1.97-3.89,4.31c0.2,2.03,2.07,3.5,4.11,3.5h91.81
			C160.65,256.45,162.4,254.7,162.4,252.54z"/>
		<linearGradient id="SVGID_1_" gradientUnits="userSpaceOnUse" x1="34.7557" y1="55.1094" x2="302.9713" y2="240.2537">
			<stop  offset="0" style="stop-color:#00AEEF"/>
			<stop  offset="1" style="stop-color:#EC008C"/>
		</linearGradient>
		<path class="st1" d="M30.56,126.42h108.87v-7.81H30.56c-2.16,0-3.91,1.75-3.91,3.91C26.65,124.67,28.4,126.42,30.56,126.42z
			 M62.56,57.5c0,2.16,1.75,3.91,3.91,3.91h85.16L162,53.6H66.47C64.31,53.6,62.56,55.35,62.56,57.5z M92.27,39.74h154.5
			c2.16,0,3.91-1.75,3.91-3.91c0-2.16-1.75-3.91-3.91-3.91H92.27c-2.16,0-3.91,1.75-3.91,3.91C88.36,37.99,90.11,39.74,92.27,39.74z
			 M199.57,126.42h108.92c2.16,0,3.91-1.75,3.91-3.91c0-2.16-1.75-3.91-3.91-3.91H199.57V126.42z M145.41,18.07h48.2
			c2.16,0,3.91-1.75,3.91-3.91c0-2.16-1.75-3.91-3.91-3.91h-48.2c-2.16,0-3.91,1.75-3.91,3.91
			C141.5,16.32,143.25,18.07,145.41,18.07z M316.95,144.19c0-2.16-1.75-3.91-3.91-3.91H196.71l0.68,7.81h115.65
			C315.2,148.09,316.95,146.34,316.95,144.19z M276.47,57.5c0-2.16-1.75-3.91-3.91-3.91H177l10.37,7.81h85.19
			C274.72,61.41,276.47,59.66,276.47,57.5z M22.06,144.19c0,2.16,1.75,3.91,3.91,3.91h115.66l0.68-7.81H25.97
			C23.81,140.28,22.06,142.03,22.06,144.19z M308.43,183.62H200.48l0.68,7.81h107.27c2.16,0,3.91-1.75,3.91-3.91
			C312.34,185.37,310.59,183.62,308.43,183.62z M301.09,205.29h-98.72l0.68,7.81h98.04c2.16,0,3.91-1.75,3.91-3.91
			C305,207.04,303.25,205.29,301.09,205.29z M313.04,161.95H198.6l0.68,7.81h113.77c2.16,0,3.91-1.75,3.91-3.91
			C316.95,163.7,315.2,161.95,313.04,161.95z M22.06,165.86c0,2.16,1.75,3.91,3.91,3.91h113.77l0.68-7.81H25.97
			C23.81,161.95,22.06,163.7,22.06,165.86z M289.58,226.96h-85.32l0.68,7.81h84.64c2.16,0,3.91-1.75,3.91-3.91
			S291.74,226.96,289.58,226.96z M26.63,187.53c0,2.16,1.75,3.91,3.91,3.91h107.31l0.68-7.81H30.54
			C28.38,183.62,26.63,185.37,26.63,187.53z M45.53,230.87c0,2.16,1.75,3.91,3.91,3.91h84.64l0.68-7.81H49.43
			C47.28,226.96,45.53,228.71,45.53,230.87z M34.01,209.2c0,2.16,1.75,3.91,3.91,3.91h98.04l0.68-7.81H37.92
			C35.76,205.29,34.01,207.04,34.01,209.2z"/>
	</g>
</g>
</svg>
