<?xml version="1.0" encoding="UTF-8"?>
<svg id="Layer_1" data-name="Layer 1" xmlns="http://www.w3.org/2000/svg" viewBox="0 0 324.25 34.4">
  <defs>
    <style>
      .cls-1 {
        fill: #fff;
      }
    </style>
  </defs>
  <path class="cls-1" d="m6.17.93v27.01h16.83v5.7H0V.93h6.17Z"/>
  <path class="cls-1" d="m29.72,33.65V.93h6.12v32.72h-6.12Z"/>
  <path class="cls-1" d="m68.28,8.93c-2.2-2.1-5.47-3.27-8.32-3.27-7.01,0-11.26,5.33-11.26,12.06,0,5.38,3.13,10.94,11.26,10.94,2.57,0,4.81-.56,7.38-2.62v-5.8h-8.37v-5.51h14.02v13.79c-3.23,3.69-7.29,5.89-13.04,5.89-12.29,0-17.29-8.09-17.29-16.69,0-9.21,5.75-17.71,17.29-17.71,4.39,0,8.79,1.68,12.15,5l-3.83,3.93Z"/>
  <path class="cls-1" d="m102.68,33.7v-13.23h-16.08v13.23h-6.17V.98h6.17v13.79h16.08V.98h6.12v32.72h-6.12Z"/>
  <path class="cls-1" d="m125.39,6.54h-10.38V.93h26.92v5.61h-10.38v27.11h-6.17V6.54Z"/>
  <path class="cls-1" d="m148.01,33.65V.98h23.51v5.94h-17.34v8.93h16.4v5.7h-16.4v12.11h-6.17Z"/>
  <path class="cls-1" d="m178.62,33.65V.93h6.12v32.72h-6.12Z"/>
  <path class="cls-1" d="m214.37.89h6.17v32.76h-3.83v.05l-17.2-22.11v22.06h-6.17V.93h5l16.03,20.28V.89Z"/>
  <path class="cls-1" d="m257.32,17.01c.14,8.27-4.91,16.64-16.36,16.64h-12.85V.93h12.85c11.22,0,16.22,7.99,16.36,16.08Zm-23.09,10.7h6.73c7.43,0,10.38-5.42,10.24-10.75-.14-5.09-3.13-10.19-10.24-10.19h-6.73v20.94Z"/>
  <path class="cls-1" d="m288.12,33.65h-24.49V.93h24.49v5.98h-18.37v7.53h17.71v5.75h-17.71v7.38h18.37v6.08Z"/>
  <path class="cls-1" d="m324.25,33.65h-7.34l-9.53-10.94h-5.94v10.94h-6.17V.89c5.19,0,10.38.05,15.56.05,7.71.05,11.78,5.19,11.78,10.84,0,4.49-2.06,9.02-8.27,10.28l9.91,11.17v.42Zm-22.81-26.97v10.47h9.39c3.93,0,5.61-2.62,5.61-5.24s-1.73-5.23-5.61-5.23h-9.39Z"/>
</svg>